<svg width="192" height="192" viewBox="0 0 192 192" fill="none" xmlns="http://www.w3.org/2000/svg">
<rect width="192" height="192" fill="#1E1E1E"/>
<g clip-path="url(#clip0_0_1)">
<rect width="192" height="192" fill="black"/>
<path d="M43.983 49.9091H71.8466L95.483 107.545H96.5739L120.21 49.9091H148.074V143H126.165V85.8182H125.392L103.028 142.409H89.0284L66.6648 85.5H65.892V143H43.983V49.9091Z" fill="#DC3545"/>
<path d="M43.983 49.9091V47.4091H41.483V49.9091H43.983ZM71.8466 49.9091L74.1596 48.9605L73.5234 47.4091H71.8466V49.9091ZM95.483 107.545L93.1699 108.494L93.8061 110.045H95.483V107.545ZM96.5739 107.545V110.045H98.2507L98.8869 108.494L96.5739 107.545ZM120.21 49.9091V47.4091H118.533L117.897 48.9605L120.21 49.9091ZM148.074 49.9091H150.574V47.4091H148.074V49.9091ZM148.074 143V145.5H150.574V143H148.074ZM126.165 143H123.665V145.5H126.165V143ZM126.165 85.8182H128.665V83.3182H126.165V85.8182ZM125.392 85.8182V83.3182H123.692L123.067 84.8994L125.392 85.8182ZM103.028 142.409V144.909H104.729L105.353 143.328L103.028 142.409ZM89.0284 142.409L86.7016 143.323L87.3247 144.909H89.0284V142.409ZM66.6648 85.5L68.9916 84.5856L68.3685 83H66.6648V85.5ZM65.892 85.5V83H63.392V85.5H65.892ZM65.892 143V145.5H68.392V143H65.892ZM43.983 143H41.483V145.5H43.983V143ZM43.983 52.4091H71.8466V47.4091H43.983V52.4091ZM69.5335 50.8577L93.1699 108.494L97.796 106.597L74.1596 48.9605L69.5335 50.8577ZM95.483 110.045H96.5739V105.045H95.483V110.045ZM98.8869 108.494L122.523 50.8577L117.897 48.9605L94.2608 106.597L98.8869 108.494ZM120.21 52.4091H148.074V47.4091H120.21V52.4091ZM145.574 49.9091V143H150.574V49.9091H145.574ZM148.074 140.5H126.165V145.5H148.074V140.5ZM128.665 143V85.8182H123.665V143H128.665ZM126.165 83.3182H125.392V88.3182H126.165V83.3182ZM123.067 84.8994L100.703 141.49L105.353 143.328L127.717 86.737L123.067 84.8994ZM103.028 139.909H89.0284V144.909H103.028V139.909ZM91.3552 141.495L68.9916 84.5856L64.338 86.4144L86.7016 143.323L91.3552 141.495ZM66.6648 83H65.892V88H66.6648V83ZM63.392 85.5V143H68.392V85.5H63.392ZM65.892 140.5H43.983V145.5H65.892V140.5ZM46.483 143V49.9091H41.483V143H46.483Z" fill="white"/>
</g>
<rect x="0.5" y="0.5" width="191" height="191" stroke="white"/>
<defs>
<clipPath id="clip0_0_1">
<rect width="192" height="192" fill="white"/>
</clipPath>
</defs>
</svg>
